{
  "title": "X-Men Days of Future Past 2014 KORSUB HDRip READNFO x264 AC3-MiL",
  "uid": 10788479,
  "size": 1475566918,
  "categoryP": "video",
  "categoryS": "movies",
  "magnet": "?xt=urn:btih:b35fd69e121e1fd384e65ae42fbe26a687d23bf6&amp;dn=X-Men+Days+of+Future+Past+2014+KORSUB+HDRip+READNFO+x264+AC3-MiL&amp;tr=udp%3A%2F%2Ftracker.openbittorrent.com%3A80&amp;tr=udp%3A%2F%2Fopen.demonii.com%3A1337&amp;tr=udp%3A%2F%2Ftracker.coppersurfer.tk%3A6969&amp;tr=udp%3A%2F%2Fexodus.desync.com%3A6969",
  "seeders": 326,
  "leechers": 33,
  "uploader": "xxxlavalxxx",
  "files": -1,
  "time": 1408231689,
  "description": "[IMG]http://i.imgur.com/LleWpRJ.jpg[/IMG]\n\n &lt;a href=&quot;\nhttp://www.imdb.com/title/tt1877832/&quot; rel=&quot;nofollow&quot; target=&quot;_NEW&quot;&gt;\nhttp://www.imdb.com/title/tt1877832/&lt;/a&gt;\n\n\nThe X-Men send Wolverine to the past in a desperate effort to change history and prevent an event that results in doom for both humans and mutants.\n\nDirector: Bryan Singer\nWriters: Simon Kinberg (screenplay), Jane Goldman (story)\nStars: Patrick Stewart, Ian McKellen, Hugh Jackman\nGenres: Action | Adventure | Fantasy | Sci-Fi\n\n\nX-Men Days of Future Past 2014 KORSUB HDRip READNFO x264 AC3-MiLLENiUM                  \n\nGeneral\n\nSource...............: KORSUB.2014.x264.720P [THANKS]\nIMDb Information.... : http://www.imdb.com/title/tt1877832/\nSample Included......: yes\n\nNOTES: New Source, This is like 5 mins longer than the others out, looks damn nice also, didnt bother cropping the subs off, enjoy :) \n\nGeneral\nComplete name                            : X-Men Days of Future Past 2014 KORSUB HDRip READNFO x264 AC3-MiLLENiUM.mkv\nFormat                                   : Matroska\nFormat version                           : Version 2\nFile size                                : 1.35 GiB\nDuration                                 : 2h 11mn\nOverall bit rate mode                    : Variable\nOverall bit rate                         : 1 473 Kbps\nEncoded date                             : UTC 2014-08-16 20:28:27\nWriting application                      : mkvmerge v7.1.0 ('Good Love') 32bit built on Jul 27 2014 12:59:18\nWriting library                          : libebml v1.3.0 + libmatroska v1.4.1\n\nVideo\nID                                       : 1\nFormat                                   : AVC\nFormat/Info                              : Advanced Video Codec\nFormat profile                           : &lt;a class=&quot;__cf_email__&quot; href=&quot;/cdn-cgi/l/email-protection&quot; data-cfemail=&quot;7139181619313d455f40&quot;&gt;[email&amp;#160;protected]&lt;/a&gt;&lt;script cf-hash='f9e31' type=&quot;text/javascript&quot;&gt;\n/* &lt;![CDATA[ */!function(){try{var t=&quot;currentScript&quot;in document?document.currentScript:function(){for(var t=document.getElementsByTagName(&quot;script&quot;),e=t.length;e--;)if(t[e].getAttribute(&quot;cf-hash&quot;))return t[e]}();if(t&amp;&amp;t.previousSibling){var e,r,n,i,c=t.previousSibling,a=c.getAttribute(&quot;data-cfemail&quot;);if(a){for(e=&quot;&quot;,r=parseInt(a.substr(0,2),16),n=2;a.length-n;n+=2)i=parseInt(a.substr(n,2),16)^r,e+=String.fromCharCode(i);e=document.createTextNode(e),c.parentNode.replaceChild(e,c)}}}catch(u){}}();/* ]]&gt; */&lt;/script&gt;\nFormat settings, CABAC                   : Yes\nFormat settings, ReFrames                : 3 frames\nCodec ID                                 : V_MPEG4/ISO/AVC\nDuration                                 : 2h 11mn\nBit rate mode                            : Variable\nBit rate                                 : 1 188 Kbps\nMaximum bit rate                         : 40.0 Mbps\nWidth                                    : 720 pixels\nHeight                                   : 400 pixels\nDisplay aspect ratio                     : 16:9\nFrame rate mode                          : Constant\nFrame rate                               : 30.181 fps\nColor space                              : YUV\nChroma subsampling                       : 4:2:0\nBit depth                                : 8 bits\nScan type                                : Progressive\nBits/(Pixel*Frame)                       : 0.137\nStream size                              : 1.09 GiB (81%)\nWriting library                          : x264 core 142 r2453 ea0ca51\n\nAudio\nID                                       : 2\nFormat                                   : AC-3\nFormat/Info                              : Audio Coding 3\nMode extension                           : CM (complete main)\nFormat settings, Endianness              : Big\nCodec ID                                 : A_AC3\nDuration                                 : 2h 11mn\nBit rate mode                            : Constant\nBit rate                                 : 256 Kbps\nChannel(s)                               : 2 channels\nChannel positions                        : Front: L R\nSampling rate                            : 44.1 KHz\nBit depth                                : 16 bits\nCompression mode                         : Lossy\nStream size                              : 240 MiB (17%)\nLanguage                                 : English\nDefault                                  : Yes\nForced                                   : No\n\n\nscreens\n &lt;a href=&quot;\nhttp://i.imgur.com/fs2dUGa.png&quot; rel=&quot;nofollow&quot; target=&quot;_NEW&quot;&gt;\nhttp://i.imgur.com/fs2dUGa.png&lt;/a&gt; &lt;a href=&quot;\nhttp://i.imgur.com/2Dn60kf.png&quot; rel=&quot;nofollow&quot; target=&quot;_NEW&quot;&gt;\nhttp://i.imgur.com/2Dn60kf.png&lt;/a&gt; &lt;a href=&quot;\nhttp://i.imgur.com/yF9W5hE.png&quot; rel=&quot;nofollow&quot; target=&quot;_NEW&quot;&gt;\nhttp://i.imgur.com/yF9W5hE.png&lt;/a&gt; &lt;a href=&quot;\nhttp://i.imgur.com/NLmt3Qc.png&quot; rel=&quot;nofollow&quot; target=&quot;_NEW&quot;&gt;\nhttp://i.imgur.com/NLmt3Qc.png&lt;/a&gt; &lt;a href=&quot;\nhttp://i.imgur.com/m05gnHq.png&quot; rel=&quot;nofollow&quot; target=&quot;_NEW&quot;&gt;\nhttp://i.imgur.com/m05gnHq.png&lt;/a&gt; &lt;a href=&quot;\nhttp://i.imgur.com/nIxWAeU.png&quot; rel=&quot;nofollow&quot; target=&quot;_NEW&quot;&gt;\nhttp://i.imgur.com/nIxWAeU.png&lt;/a&gt; &lt;a href=&quot;\nhttp://i.imgur.com/ZCq2zZt.png&quot; rel=&quot;nofollow&quot; target=&quot;_NEW&quot;&gt;\nhttp://i.imgur.com/ZCq2zZt.png&lt;/a&gt; &lt;a href=&quot;\nhttp://i.imgur.com/LfiTs5l.png&quot; rel=&quot;nofollow&quot; target=&quot;_NEW&quot;&gt;\nhttp://i.imgur.com/LfiTs5l.png&lt;/a&gt; &lt;a href=&quot;\nhttp://i.imgur.com/WQIVW1j.png&quot; rel=&quot;nofollow&quot; target=&quot;_NEW&quot;&gt;\nhttp://i.imgur.com/WQIVW1j.png&lt;/a&gt;",
  "parsed": {
    "xt": "urn:btih:b35fd69e121e1fd384e65ae42fbe26a687d23bf6",
    "dn": "X-Men Days of Future Past 2014 KORSUB HDRip READNFO x264 AC3-MiL",
    "tr": [
      "udp://exodus.desync.com:6969",
      "udp://open.demonii.com:1337",
      "udp://tracker.coppersurfer.tk:6969",
      "udp://tracker.openbittorrent.com:80"
    ],
    "infoHash": "b35fd69e121e1fd384e65ae42fbe26a687d23bf6",
    "infoHashBuffer": {
      "type": "Buffer",
      "data": [
        179,
        95,
        214,
        158,
        18,
        30,
        31,
        211,
        132,
        230,
        90,
        228,
        47,
        190,
        38,
        166,
        135,
        210,
        59,
        246
      ]
    },
    "name": "X-Men Days of Future Past 2014 KORSUB HDRip READNFO x264 AC3-MiL",
    "announce": [
      "udp://exodus.desync.com:6969",
      "udp://open.demonii.com:1337",
      "udp://tracker.coppersurfer.tk:6969",
      "udp://tracker.openbittorrent.com:80"
    ],
    "urlList": []
  },
  "previous": 68,
  "peers": 8,
  "last_updated": "2016-12-27T10:42:10.692Z"
}